<mxfile host="app.diagrams.net" agent="Mozilla/5.0 (Windows NT 10.0; Win64; x64) AppleWebKit/537.36 (KHTML, like Gecko) Chrome/131.0.0.0 Safari/537.36 Edg/131.0.0.0" version="25.0.3">
  <diagram name="Страница — 1" id="fC-j9lsUPn7sBgdLvZU4">
    <mxGraphModel dx="1186" dy="637" grid="1" gridSize="10" guides="1" tooltips="1" connect="1" arrows="1" fold="1" page="1" pageScale="1" pageWidth="827" pageHeight="1169" math="0" shadow="0">
      <root>
        <mxCell id="0" />
        <mxCell id="1" parent="0" />
        <mxCell id="zSCzqbMGG7_pVgONX9-E-7" value="Врач" style="swimlane;fontStyle=0;childLayout=stackLayout;horizontal=1;startSize=30;horizontalStack=0;resizeParent=1;resizeParentMax=0;resizeLast=0;collapsible=1;marginBottom=0;whiteSpace=wrap;html=1;" vertex="1" parent="1">
          <mxGeometry x="460" y="240" width="140" height="280" as="geometry" />
        </mxCell>
        <mxCell id="zSCzqbMGG7_pVgONX9-E-8" value="- ФИО" style="text;strokeColor=none;fillColor=none;align=left;verticalAlign=middle;spacingLeft=4;spacingRight=4;overflow=hidden;points=[[0,0.5],[1,0.5]];portConstraint=eastwest;rotatable=0;whiteSpace=wrap;html=1;" vertex="1" parent="zSCzqbMGG7_pVgONX9-E-7">
          <mxGeometry y="30" width="140" height="30" as="geometry" />
        </mxCell>
        <mxCell id="zSCzqbMGG7_pVgONX9-E-9" value="- Специализация" style="text;strokeColor=none;fillColor=none;align=left;verticalAlign=middle;spacingLeft=4;spacingRight=4;overflow=hidden;points=[[0,0.5],[1,0.5]];portConstraint=eastwest;rotatable=0;whiteSpace=wrap;html=1;" vertex="1" parent="zSCzqbMGG7_pVgONX9-E-7">
          <mxGeometry y="60" width="140" height="30" as="geometry" />
        </mxCell>
        <mxCell id="zSCzqbMGG7_pVgONX9-E-43" value="+ Просмотр мед. книжки(номер мед. книжки) : string" style="text;strokeColor=none;fillColor=none;align=left;verticalAlign=middle;spacingLeft=4;spacingRight=4;overflow=hidden;points=[[0,0.5],[1,0.5]];portConstraint=eastwest;rotatable=0;whiteSpace=wrap;html=1;" vertex="1" parent="zSCzqbMGG7_pVgONX9-E-7">
          <mxGeometry y="90" width="140" height="50" as="geometry" />
        </mxCell>
        <mxCell id="zSCzqbMGG7_pVgONX9-E-44" value="+ Поставить диагноз (номер мед. книжки) : void" style="text;strokeColor=none;fillColor=none;align=left;verticalAlign=middle;spacingLeft=4;spacingRight=4;overflow=hidden;points=[[0,0.5],[1,0.5]];portConstraint=eastwest;rotatable=0;whiteSpace=wrap;html=1;" vertex="1" parent="zSCzqbMGG7_pVgONX9-E-7">
          <mxGeometry y="140" width="140" height="50" as="geometry" />
        </mxCell>
        <mxCell id="zSCzqbMGG7_pVgONX9-E-45" value="+ Сформировать отчет (период) : string" style="text;strokeColor=none;fillColor=none;align=left;verticalAlign=middle;spacingLeft=4;spacingRight=4;overflow=hidden;points=[[0,0.5],[1,0.5]];portConstraint=eastwest;rotatable=0;whiteSpace=wrap;html=1;" vertex="1" parent="zSCzqbMGG7_pVgONX9-E-7">
          <mxGeometry y="190" width="140" height="40" as="geometry" />
        </mxCell>
        <mxCell id="zSCzqbMGG7_pVgONX9-E-46" value="+ Записать на повторный прием (пациент, дата) : void" style="text;strokeColor=none;fillColor=none;align=left;verticalAlign=middle;spacingLeft=4;spacingRight=4;overflow=hidden;points=[[0,0.5],[1,0.5]];portConstraint=eastwest;rotatable=0;whiteSpace=wrap;html=1;" vertex="1" parent="zSCzqbMGG7_pVgONX9-E-7">
          <mxGeometry y="230" width="140" height="50" as="geometry" />
        </mxCell>
        <mxCell id="zSCzqbMGG7_pVgONX9-E-47" value="" style="endArrow=none;html=1;rounded=0;exitX=0.003;exitY=0.003;exitDx=0;exitDy=0;exitPerimeter=0;entryX=0.998;entryY=0.022;entryDx=0;entryDy=0;entryPerimeter=0;" edge="1" parent="zSCzqbMGG7_pVgONX9-E-7" source="zSCzqbMGG7_pVgONX9-E-43" target="zSCzqbMGG7_pVgONX9-E-43">
          <mxGeometry width="50" height="50" relative="1" as="geometry">
            <mxPoint x="60" y="140" as="sourcePoint" />
            <mxPoint x="110" y="90" as="targetPoint" />
          </mxGeometry>
        </mxCell>
        <mxCell id="zSCzqbMGG7_pVgONX9-E-11" value="Пациент" style="swimlane;fontStyle=0;childLayout=stackLayout;horizontal=1;startSize=30;horizontalStack=0;resizeParent=1;resizeParentMax=0;resizeLast=0;collapsible=1;marginBottom=0;whiteSpace=wrap;html=1;" vertex="1" parent="1">
          <mxGeometry x="687" y="620" width="140" height="210" as="geometry" />
        </mxCell>
        <mxCell id="zSCzqbMGG7_pVgONX9-E-12" value="- ФИО" style="text;strokeColor=none;fillColor=none;align=left;verticalAlign=middle;spacingLeft=4;spacingRight=4;overflow=hidden;points=[[0,0.5],[1,0.5]];portConstraint=eastwest;rotatable=0;whiteSpace=wrap;html=1;" vertex="1" parent="zSCzqbMGG7_pVgONX9-E-11">
          <mxGeometry y="30" width="140" height="30" as="geometry" />
        </mxCell>
        <mxCell id="zSCzqbMGG7_pVgONX9-E-13" value="- Дата рождения" style="text;strokeColor=none;fillColor=none;align=left;verticalAlign=middle;spacingLeft=4;spacingRight=4;overflow=hidden;points=[[0,0.5],[1,0.5]];portConstraint=eastwest;rotatable=0;whiteSpace=wrap;html=1;" vertex="1" parent="zSCzqbMGG7_pVgONX9-E-11">
          <mxGeometry y="60" width="140" height="30" as="geometry" />
        </mxCell>
        <mxCell id="zSCzqbMGG7_pVgONX9-E-14" value="- Номер мед. книжки" style="text;strokeColor=none;fillColor=none;align=left;verticalAlign=middle;spacingLeft=4;spacingRight=4;overflow=hidden;points=[[0,0.5],[1,0.5]];portConstraint=eastwest;rotatable=0;whiteSpace=wrap;html=1;" vertex="1" parent="zSCzqbMGG7_pVgONX9-E-11">
          <mxGeometry y="90" width="140" height="30" as="geometry" />
        </mxCell>
        <mxCell id="zSCzqbMGG7_pVgONX9-E-50" value="" style="endArrow=none;html=1;rounded=0;exitX=-0.009;exitY=-0.028;exitDx=0;exitDy=0;exitPerimeter=0;entryX=0.991;entryY=0.972;entryDx=0;entryDy=0;entryPerimeter=0;" edge="1" parent="zSCzqbMGG7_pVgONX9-E-11">
          <mxGeometry width="50" height="50" relative="1" as="geometry">
            <mxPoint x="9.103828801926284e-15" y="120.00000000000009" as="sourcePoint" />
            <mxPoint x="140" y="120.00000000000009" as="targetPoint" />
          </mxGeometry>
        </mxCell>
        <mxCell id="zSCzqbMGG7_pVgONX9-E-48" value="+ Записаться на прием (Врач, дата, время) : void" style="text;strokeColor=none;fillColor=none;align=left;verticalAlign=middle;spacingLeft=4;spacingRight=4;overflow=hidden;points=[[0,0.5],[1,0.5]];portConstraint=eastwest;rotatable=0;whiteSpace=wrap;html=1;" vertex="1" parent="zSCzqbMGG7_pVgONX9-E-11">
          <mxGeometry y="120" width="140" height="50" as="geometry" />
        </mxCell>
        <mxCell id="zSCzqbMGG7_pVgONX9-E-49" value="+ Посмотреть свою мед.книжку() : String" style="text;strokeColor=none;fillColor=none;align=left;verticalAlign=middle;spacingLeft=4;spacingRight=4;overflow=hidden;points=[[0,0.5],[1,0.5]];portConstraint=eastwest;rotatable=0;whiteSpace=wrap;html=1;" vertex="1" parent="zSCzqbMGG7_pVgONX9-E-11">
          <mxGeometry y="170" width="140" height="40" as="geometry" />
        </mxCell>
        <mxCell id="zSCzqbMGG7_pVgONX9-E-19" value="Мед. книжка" style="swimlane;fontStyle=0;childLayout=stackLayout;horizontal=1;startSize=30;horizontalStack=0;resizeParent=1;resizeParentMax=0;resizeLast=0;collapsible=1;marginBottom=0;whiteSpace=wrap;html=1;" vertex="1" parent="1">
          <mxGeometry x="460" y="620" width="140" height="130" as="geometry" />
        </mxCell>
        <mxCell id="zSCzqbMGG7_pVgONX9-E-20" value="Пациент" style="text;strokeColor=none;fillColor=none;align=left;verticalAlign=middle;spacingLeft=4;spacingRight=4;overflow=hidden;points=[[0,0.5],[1,0.5]];portConstraint=eastwest;rotatable=0;whiteSpace=wrap;html=1;" vertex="1" parent="zSCzqbMGG7_pVgONX9-E-19">
          <mxGeometry y="30" width="140" height="30" as="geometry" />
        </mxCell>
        <mxCell id="zSCzqbMGG7_pVgONX9-E-21" value="Номер" style="text;strokeColor=none;fillColor=none;align=left;verticalAlign=middle;spacingLeft=4;spacingRight=4;overflow=hidden;points=[[0,0.5],[1,0.5]];portConstraint=eastwest;rotatable=0;whiteSpace=wrap;html=1;" vertex="1" parent="zSCzqbMGG7_pVgONX9-E-19">
          <mxGeometry y="60" width="140" height="30" as="geometry" />
        </mxCell>
        <mxCell id="zSCzqbMGG7_pVgONX9-E-22" value="История болезни" style="text;strokeColor=none;fillColor=none;align=left;verticalAlign=middle;spacingLeft=4;spacingRight=4;overflow=hidden;points=[[0,0.5],[1,0.5]];portConstraint=eastwest;rotatable=0;whiteSpace=wrap;html=1;" vertex="1" parent="zSCzqbMGG7_pVgONX9-E-19">
          <mxGeometry y="90" width="140" height="40" as="geometry" />
        </mxCell>
        <mxCell id="zSCzqbMGG7_pVgONX9-E-52" value="1" style="text;html=1;align=center;verticalAlign=middle;resizable=0;points=[];autosize=1;strokeColor=none;fillColor=none;" vertex="1" parent="1">
          <mxGeometry x="590" y="590" width="30" height="30" as="geometry" />
        </mxCell>
        <mxCell id="zSCzqbMGG7_pVgONX9-E-53" value="1" style="text;html=1;align=center;verticalAlign=middle;resizable=0;points=[];autosize=1;strokeColor=none;fillColor=none;" vertex="1" parent="1">
          <mxGeometry x="670" y="590" width="30" height="30" as="geometry" />
        </mxCell>
        <mxCell id="zSCzqbMGG7_pVgONX9-E-56" value="" style="endArrow=open;endFill=1;endSize=12;html=1;rounded=0;entryX=1.014;entryY=0.113;entryDx=0;entryDy=0;entryPerimeter=0;exitX=-0.002;exitY=0.068;exitDx=0;exitDy=0;exitPerimeter=0;" edge="1" parent="1" source="zSCzqbMGG7_pVgONX9-E-11" target="zSCzqbMGG7_pVgONX9-E-19">
          <mxGeometry width="160" relative="1" as="geometry">
            <mxPoint x="650" y="640" as="sourcePoint" />
            <mxPoint x="710" y="620" as="targetPoint" />
          </mxGeometry>
        </mxCell>
        <mxCell id="zSCzqbMGG7_pVgONX9-E-57" value="" style="endArrow=diamondThin;endFill=0;endSize=24;html=1;rounded=0;exitX=0.49;exitY=1.022;exitDx=0;exitDy=0;exitPerimeter=0;" edge="1" parent="1" source="zSCzqbMGG7_pVgONX9-E-46">
          <mxGeometry width="160" relative="1" as="geometry">
            <mxPoint x="720" y="550" as="sourcePoint" />
            <mxPoint x="529" y="620" as="targetPoint" />
          </mxGeometry>
        </mxCell>
        <mxCell id="zSCzqbMGG7_pVgONX9-E-58" value="1..*" style="text;html=1;align=center;verticalAlign=middle;resizable=0;points=[];autosize=1;strokeColor=none;fillColor=none;" vertex="1" parent="1">
          <mxGeometry x="520" y="518" width="40" height="30" as="geometry" />
        </mxCell>
        <mxCell id="zSCzqbMGG7_pVgONX9-E-59" value="1..*" style="text;html=1;align=center;verticalAlign=middle;resizable=0;points=[];autosize=1;strokeColor=none;fillColor=none;" vertex="1" parent="1">
          <mxGeometry x="540" y="585" width="40" height="30" as="geometry" />
        </mxCell>
      </root>
    </mxGraphModel>
  </diagram>
</mxfile>
